<svg width="34" height="34" viewBox="0 0 34 34" fill="none" xmlns="http://www.w3.org/2000/svg">
<path d="M17 33C25.8366 33 33 25.8366 33 17C33 8.16344 25.8366 1 17 1C8.16344 1 1 8.16344 1 17C1 25.8366 8.16344 33 17 33Z" fill="#F1F1F1" stroke="#2D2D2D" stroke-width="2" stroke-miterlimit="10"/>
<path d="M25 25C29.4183 25 33 21.4183 33 17C33 12.5817 29.4183 9 25 9C20.5817 9 17 12.5817 17 17C17 21.4183 20.5817 25 25 25Z" fill="#F1F1F1" stroke="#2D2D2D" stroke-width="2" stroke-miterlimit="10"/>
<path d="M21 21C23.2091 21 25 19.2091 25 17C25 14.7909 23.2091 13 21 13C18.7909 13 17 14.7909 17 17C17 19.2091 18.7909 21 21 21Z" fill="#F1F1F1" stroke="#2D2D2D" stroke-width="2" stroke-miterlimit="10"/>
</svg>
